<mxfile host="app.diagrams.net" modified="2023-09-28T05:30:34.978Z" agent="Mozilla/5.0 (Windows NT 10.0; Win64; x64) AppleWebKit/537.36 (KHTML, like Gecko) Chrome/116.0.0.0 Safari/537.36 OPR/102.0.0.0 (Edition std-1)" etag="xDZS6yEMsEwnzcO9xw-8" version="21.8.2" type="onedrive">
  <diagram name="Página-1" id="_U1Rd6eDKISZy5Em5L5j">
    <mxGraphModel dx="699" dy="404" grid="1" gridSize="10" guides="1" tooltips="1" connect="1" arrows="1" fold="1" page="1" pageScale="1" pageWidth="827" pageHeight="1169" math="0" shadow="0">
      <root>
        <mxCell id="0" />
        <mxCell id="1" parent="0" />
        <mxCell id="cD47uGrbN58Vhe_JIDx1-10" value="NOMBRE" style="rounded=0;whiteSpace=wrap;html=1;fillColor=#dae8fc;strokeColor=#6c8ebf;" vertex="1" parent="1">
          <mxGeometry x="420" y="20" width="130" height="40" as="geometry" />
        </mxCell>
        <mxCell id="cD47uGrbN58Vhe_JIDx1-13" value="CALORIAS" style="rounded=0;whiteSpace=wrap;html=1;fillColor=#dae8fc;strokeColor=#6c8ebf;" vertex="1" parent="1">
          <mxGeometry x="420" y="170" width="130" height="40" as="geometry" />
        </mxCell>
        <mxCell id="cD47uGrbN58Vhe_JIDx1-14" value="DESCRIPCION" style="rounded=0;whiteSpace=wrap;html=1;fillColor=#dae8fc;strokeColor=#6c8ebf;" vertex="1" parent="1">
          <mxGeometry x="420" y="120" width="130" height="40" as="geometry" />
        </mxCell>
        <mxCell id="cD47uGrbN58Vhe_JIDx1-15" value="PRECIOS" style="rounded=0;whiteSpace=wrap;html=1;fillColor=#dae8fc;strokeColor=#6c8ebf;" vertex="1" parent="1">
          <mxGeometry x="420" y="70" width="130" height="40" as="geometry" />
        </mxCell>
        <mxCell id="cD47uGrbN58Vhe_JIDx1-16" value="NOMBRE" style="rounded=0;whiteSpace=wrap;html=1;fillColor=#e1d5e7;strokeColor=#9673a6;" vertex="1" parent="1">
          <mxGeometry x="420" y="250" width="130" height="40" as="geometry" />
        </mxCell>
        <mxCell id="cD47uGrbN58Vhe_JIDx1-17" value="CALORIAS" style="rounded=0;whiteSpace=wrap;html=1;fillColor=#e1d5e7;strokeColor=#9673a6;" vertex="1" parent="1">
          <mxGeometry x="420" y="400" width="130" height="40" as="geometry" />
        </mxCell>
        <mxCell id="cD47uGrbN58Vhe_JIDx1-18" value="DESCRIPCION" style="rounded=0;whiteSpace=wrap;html=1;fillColor=#e1d5e7;strokeColor=#9673a6;" vertex="1" parent="1">
          <mxGeometry x="420" y="350" width="130" height="40" as="geometry" />
        </mxCell>
        <mxCell id="cD47uGrbN58Vhe_JIDx1-19" value="PRECIOS" style="rounded=0;whiteSpace=wrap;html=1;fillColor=#e1d5e7;strokeColor=#9673a6;" vertex="1" parent="1">
          <mxGeometry x="420" y="300" width="130" height="40" as="geometry" />
        </mxCell>
        <mxCell id="cD47uGrbN58Vhe_JIDx1-20" value="NOMBRE" style="rounded=0;whiteSpace=wrap;html=1;fillColor=#dae8fc;strokeColor=#6c8ebf;" vertex="1" parent="1">
          <mxGeometry x="420" y="480" width="130" height="40" as="geometry" />
        </mxCell>
        <mxCell id="cD47uGrbN58Vhe_JIDx1-21" value="CALORIAS" style="rounded=0;whiteSpace=wrap;html=1;fillColor=#dae8fc;strokeColor=#6c8ebf;" vertex="1" parent="1">
          <mxGeometry x="420" y="630" width="130" height="40" as="geometry" />
        </mxCell>
        <mxCell id="cD47uGrbN58Vhe_JIDx1-22" value="DESCRIPCION" style="rounded=0;whiteSpace=wrap;html=1;fillColor=#dae8fc;strokeColor=#6c8ebf;" vertex="1" parent="1">
          <mxGeometry x="420" y="580" width="130" height="40" as="geometry" />
        </mxCell>
        <mxCell id="cD47uGrbN58Vhe_JIDx1-23" value="PRECIOS" style="rounded=0;whiteSpace=wrap;html=1;fillColor=#dae8fc;strokeColor=#6c8ebf;" vertex="1" parent="1">
          <mxGeometry x="420" y="530" width="130" height="40" as="geometry" />
        </mxCell>
        <mxCell id="cD47uGrbN58Vhe_JIDx1-24" value="NOMBRE" style="rounded=0;whiteSpace=wrap;html=1;fillColor=#e1d5e7;strokeColor=#9673a6;" vertex="1" parent="1">
          <mxGeometry x="420" y="720" width="130" height="40" as="geometry" />
        </mxCell>
        <mxCell id="cD47uGrbN58Vhe_JIDx1-25" value="CALORIAS" style="rounded=0;whiteSpace=wrap;html=1;fillColor=#e1d5e7;strokeColor=#9673a6;" vertex="1" parent="1">
          <mxGeometry x="420" y="870" width="130" height="40" as="geometry" />
        </mxCell>
        <mxCell id="cD47uGrbN58Vhe_JIDx1-26" value="DESCRIPCION" style="rounded=0;whiteSpace=wrap;html=1;fillColor=#e1d5e7;strokeColor=#9673a6;" vertex="1" parent="1">
          <mxGeometry x="420" y="820" width="130" height="40" as="geometry" />
        </mxCell>
        <mxCell id="cD47uGrbN58Vhe_JIDx1-27" value="PRECIOS" style="rounded=0;whiteSpace=wrap;html=1;fillColor=#e1d5e7;strokeColor=#9673a6;" vertex="1" parent="1">
          <mxGeometry x="420" y="770" width="130" height="40" as="geometry" />
        </mxCell>
        <mxCell id="cD47uGrbN58Vhe_JIDx1-28" value="NOMBRE" style="rounded=0;whiteSpace=wrap;html=1;fillColor=#dae8fc;strokeColor=#6c8ebf;" vertex="1" parent="1">
          <mxGeometry x="420" y="960" width="130" height="40" as="geometry" />
        </mxCell>
        <mxCell id="cD47uGrbN58Vhe_JIDx1-29" value="CALORIAS" style="rounded=0;whiteSpace=wrap;html=1;fillColor=#dae8fc;strokeColor=#6c8ebf;" vertex="1" parent="1">
          <mxGeometry x="420" y="1110" width="130" height="40" as="geometry" />
        </mxCell>
        <mxCell id="cD47uGrbN58Vhe_JIDx1-30" value="DESCRIPCION" style="rounded=0;whiteSpace=wrap;html=1;fillColor=#dae8fc;strokeColor=#6c8ebf;" vertex="1" parent="1">
          <mxGeometry x="420" y="1060" width="130" height="40" as="geometry" />
        </mxCell>
        <mxCell id="cD47uGrbN58Vhe_JIDx1-31" value="PRECIOS" style="rounded=0;whiteSpace=wrap;html=1;fillColor=#dae8fc;strokeColor=#6c8ebf;" vertex="1" parent="1">
          <mxGeometry x="420" y="1010" width="130" height="40" as="geometry" />
        </mxCell>
        <mxCell id="cD47uGrbN58Vhe_JIDx1-32" value="GOFRES BELGAS" style="rounded=0;whiteSpace=wrap;html=1;fillColor=#dae8fc;strokeColor=#6c8ebf;" vertex="1" parent="1">
          <mxGeometry x="590" y="20" width="140" height="40" as="geometry" />
        </mxCell>
        <mxCell id="cD47uGrbN58Vhe_JIDx1-33" value="650" style="rounded=0;whiteSpace=wrap;html=1;fillColor=#dae8fc;strokeColor=#6c8ebf;" vertex="1" parent="1">
          <mxGeometry x="590" y="170" width="140" height="40" as="geometry" />
        </mxCell>
        <mxCell id="cD47uGrbN58Vhe_JIDx1-34" value="Dos de nuestros famosos gofres belgas con abundante sirope" style="rounded=0;whiteSpace=wrap;html=1;fillColor=#dae8fc;strokeColor=#6c8ebf;" vertex="1" parent="1">
          <mxGeometry x="590" y="115" width="140" height="50" as="geometry" />
        </mxCell>
        <mxCell id="cD47uGrbN58Vhe_JIDx1-35" value="5.95" style="rounded=0;whiteSpace=wrap;html=1;fillColor=#dae8fc;strokeColor=#6c8ebf;" vertex="1" parent="1">
          <mxGeometry x="590" y="70" width="140" height="40" as="geometry" />
        </mxCell>
        <mxCell id="cD47uGrbN58Vhe_JIDx1-36" value="GOFRES BELGAS CON FRESAS" style="rounded=0;whiteSpace=wrap;html=1;fillColor=#e1d5e7;strokeColor=#9673a6;" vertex="1" parent="1">
          <mxGeometry x="590" y="250" width="140" height="40" as="geometry" />
        </mxCell>
        <mxCell id="cD47uGrbN58Vhe_JIDx1-37" value="900" style="rounded=0;whiteSpace=wrap;html=1;fillColor=#e1d5e7;strokeColor=#9673a6;" vertex="1" parent="1">
          <mxGeometry x="590" y="400" width="140" height="40" as="geometry" />
        </mxCell>
        <mxCell id="cD47uGrbN58Vhe_JIDx1-38" value="Ligeros gofres belgas cubiertos de fresas y nata montada&amp;nbsp;" style="rounded=0;whiteSpace=wrap;html=1;fillColor=#e1d5e7;strokeColor=#9673a6;" vertex="1" parent="1">
          <mxGeometry x="590" y="345" width="140" height="50" as="geometry" />
        </mxCell>
        <mxCell id="cD47uGrbN58Vhe_JIDx1-39" value="7.95" style="rounded=0;whiteSpace=wrap;html=1;fillColor=#e1d5e7;strokeColor=#9673a6;" vertex="1" parent="1">
          <mxGeometry x="590" y="300" width="140" height="40" as="geometry" />
        </mxCell>
        <mxCell id="cD47uGrbN58Vhe_JIDx1-40" value="GOBRES BELGAS CON FRUTAS DEL BOSQUE" style="rounded=0;whiteSpace=wrap;html=1;fillColor=#dae8fc;strokeColor=#6c8ebf;" vertex="1" parent="1">
          <mxGeometry x="590" y="480" width="140" height="40" as="geometry" />
        </mxCell>
        <mxCell id="cD47uGrbN58Vhe_JIDx1-41" value="900" style="rounded=0;whiteSpace=wrap;html=1;fillColor=#dae8fc;strokeColor=#6c8ebf;" vertex="1" parent="1">
          <mxGeometry x="590" y="630" width="140" height="40" as="geometry" />
        </mxCell>
        <mxCell id="cD47uGrbN58Vhe_JIDx1-42" value="Ligeros gofres belgas cubiertos de frutas del bosque y nata montada&amp;nbsp;" style="rounded=0;whiteSpace=wrap;html=1;fillColor=#dae8fc;strokeColor=#6c8ebf;" vertex="1" parent="1">
          <mxGeometry x="590" y="575" width="140" height="50" as="geometry" />
        </mxCell>
        <mxCell id="cD47uGrbN58Vhe_JIDx1-43" value="8.95" style="rounded=0;whiteSpace=wrap;html=1;fillColor=#dae8fc;strokeColor=#6c8ebf;" vertex="1" parent="1">
          <mxGeometry x="590" y="530" width="140" height="40" as="geometry" />
        </mxCell>
        <mxCell id="cD47uGrbN58Vhe_JIDx1-44" value="TOSTADA FRANCESA" style="rounded=0;whiteSpace=wrap;html=1;fillColor=#e1d5e7;strokeColor=#9673a6;" vertex="1" parent="1">
          <mxGeometry x="590" y="720" width="140" height="40" as="geometry" />
        </mxCell>
        <mxCell id="cD47uGrbN58Vhe_JIDx1-45" value="600" style="rounded=0;whiteSpace=wrap;html=1;fillColor=#e1d5e7;strokeColor=#9673a6;" vertex="1" parent="1">
          <mxGeometry x="590" y="870" width="140" height="40" as="geometry" />
        </mxCell>
        <mxCell id="cD47uGrbN58Vhe_JIDx1-46" value="Dos gruesas rebanadas de nuestro pan francés casero" style="rounded=0;whiteSpace=wrap;html=1;fillColor=#e1d5e7;strokeColor=#9673a6;" vertex="1" parent="1">
          <mxGeometry x="590" y="815" width="140" height="50" as="geometry" />
        </mxCell>
        <mxCell id="cD47uGrbN58Vhe_JIDx1-47" value="4.50" style="rounded=0;whiteSpace=wrap;html=1;fillColor=#e1d5e7;strokeColor=#9673a6;" vertex="1" parent="1">
          <mxGeometry x="590" y="770" width="140" height="40" as="geometry" />
        </mxCell>
        <mxCell id="cD47uGrbN58Vhe_JIDx1-48" value="DESAYUNO DE LA CASA" style="rounded=0;whiteSpace=wrap;html=1;fillColor=#dae8fc;strokeColor=#6c8ebf;" vertex="1" parent="1">
          <mxGeometry x="590" y="960" width="140" height="40" as="geometry" />
        </mxCell>
        <mxCell id="cD47uGrbN58Vhe_JIDx1-49" value="950" style="rounded=0;whiteSpace=wrap;html=1;fillColor=#dae8fc;strokeColor=#6c8ebf;" vertex="1" parent="1">
          <mxGeometry x="590" y="1110" width="140" height="40" as="geometry" />
        </mxCell>
        <mxCell id="cD47uGrbN58Vhe_JIDx1-50" value="Dos huevos, bacon o salchicha, tostada y patatas fritas" style="rounded=0;whiteSpace=wrap;html=1;fillColor=#dae8fc;strokeColor=#6c8ebf;" vertex="1" parent="1">
          <mxGeometry x="590" y="1055" width="140" height="50" as="geometry" />
        </mxCell>
        <mxCell id="cD47uGrbN58Vhe_JIDx1-51" value="6.95" style="rounded=0;whiteSpace=wrap;html=1;fillColor=#dae8fc;strokeColor=#6c8ebf;" vertex="1" parent="1">
          <mxGeometry x="590" y="1010" width="140" height="40" as="geometry" />
        </mxCell>
        <mxCell id="cD47uGrbN58Vhe_JIDx1-52" value="DESAYUNO" style="rounded=0;whiteSpace=wrap;html=1;fillColor=#dae8fc;strokeColor=#6c8ebf;" vertex="1" parent="1">
          <mxGeometry x="240" y="80" width="120" height="60" as="geometry" />
        </mxCell>
        <mxCell id="cD47uGrbN58Vhe_JIDx1-53" value="DESAYUNO" style="rounded=0;whiteSpace=wrap;html=1;fillColor=#e1d5e7;strokeColor=#9673a6;" vertex="1" parent="1">
          <mxGeometry x="240" y="780" width="120" height="60" as="geometry" />
        </mxCell>
        <mxCell id="cD47uGrbN58Vhe_JIDx1-54" value="DESAYUNO" style="rounded=0;whiteSpace=wrap;html=1;fillColor=#dae8fc;strokeColor=#6c8ebf;" vertex="1" parent="1">
          <mxGeometry x="240" y="540" width="120" height="60" as="geometry" />
        </mxCell>
        <mxCell id="cD47uGrbN58Vhe_JIDx1-55" value="DESAYUNO" style="rounded=0;whiteSpace=wrap;html=1;fillColor=#e1d5e7;strokeColor=#9673a6;" vertex="1" parent="1">
          <mxGeometry x="240" y="310" width="120" height="60" as="geometry" />
        </mxCell>
        <mxCell id="cD47uGrbN58Vhe_JIDx1-56" value="DESAYUNO&lt;br&gt;" style="rounded=0;whiteSpace=wrap;html=1;fillColor=#dae8fc;strokeColor=#6c8ebf;" vertex="1" parent="1">
          <mxGeometry x="240" y="1030" width="120" height="60" as="geometry" />
        </mxCell>
        <mxCell id="cD47uGrbN58Vhe_JIDx1-57" value="&lt;font style=&quot;font-size: 14px;&quot;&gt;MENU&lt;/font&gt;" style="rounded=0;whiteSpace=wrap;html=1;fillColor=#ffcc99;strokeColor=#36393d;" vertex="1" parent="1">
          <mxGeometry x="20" y="540" width="130" height="60" as="geometry" />
        </mxCell>
        <mxCell id="cD47uGrbN58Vhe_JIDx1-61" value="" style="endArrow=none;html=1;rounded=0;exitX=1;exitY=0.5;exitDx=0;exitDy=0;" edge="1" parent="1" source="cD47uGrbN58Vhe_JIDx1-54">
          <mxGeometry width="50" height="50" relative="1" as="geometry">
            <mxPoint x="380" y="610" as="sourcePoint" />
            <mxPoint x="390" y="570" as="targetPoint" />
          </mxGeometry>
        </mxCell>
        <mxCell id="cD47uGrbN58Vhe_JIDx1-62" value="" style="endArrow=none;html=1;rounded=0;" edge="1" parent="1">
          <mxGeometry width="50" height="50" relative="1" as="geometry">
            <mxPoint x="390" y="650" as="sourcePoint" />
            <mxPoint x="390" y="500" as="targetPoint" />
          </mxGeometry>
        </mxCell>
        <mxCell id="cD47uGrbN58Vhe_JIDx1-63" value="" style="endArrow=none;html=1;rounded=0;entryX=0;entryY=0.5;entryDx=0;entryDy=0;" edge="1" parent="1" target="cD47uGrbN58Vhe_JIDx1-20">
          <mxGeometry width="50" height="50" relative="1" as="geometry">
            <mxPoint x="390" y="500" as="sourcePoint" />
            <mxPoint x="430" y="550" as="targetPoint" />
          </mxGeometry>
        </mxCell>
        <mxCell id="cD47uGrbN58Vhe_JIDx1-64" value="" style="endArrow=none;html=1;rounded=0;entryX=0;entryY=0.5;entryDx=0;entryDy=0;" edge="1" parent="1">
          <mxGeometry width="50" height="50" relative="1" as="geometry">
            <mxPoint x="390" y="599.58" as="sourcePoint" />
            <mxPoint x="420" y="599.58" as="targetPoint" />
          </mxGeometry>
        </mxCell>
        <mxCell id="cD47uGrbN58Vhe_JIDx1-66" value="" style="endArrow=none;html=1;rounded=0;entryX=0;entryY=0.5;entryDx=0;entryDy=0;" edge="1" parent="1">
          <mxGeometry width="50" height="50" relative="1" as="geometry">
            <mxPoint x="390" y="649.58" as="sourcePoint" />
            <mxPoint x="420" y="649.58" as="targetPoint" />
          </mxGeometry>
        </mxCell>
        <mxCell id="cD47uGrbN58Vhe_JIDx1-67" value="" style="endArrow=none;html=1;rounded=0;entryX=0;entryY=0.5;entryDx=0;entryDy=0;" edge="1" parent="1">
          <mxGeometry width="50" height="50" relative="1" as="geometry">
            <mxPoint x="390" y="549.58" as="sourcePoint" />
            <mxPoint x="420" y="549.58" as="targetPoint" />
          </mxGeometry>
        </mxCell>
        <mxCell id="cD47uGrbN58Vhe_JIDx1-68" value="" style="endArrow=none;html=1;rounded=0;exitX=1;exitY=0.5;exitDx=0;exitDy=0;" edge="1" parent="1">
          <mxGeometry width="50" height="50" relative="1" as="geometry">
            <mxPoint x="360" y="340" as="sourcePoint" />
            <mxPoint x="390" y="340" as="targetPoint" />
          </mxGeometry>
        </mxCell>
        <mxCell id="cD47uGrbN58Vhe_JIDx1-69" value="" style="endArrow=none;html=1;rounded=0;" edge="1" parent="1">
          <mxGeometry width="50" height="50" relative="1" as="geometry">
            <mxPoint x="390" y="420" as="sourcePoint" />
            <mxPoint x="390" y="270" as="targetPoint" />
          </mxGeometry>
        </mxCell>
        <mxCell id="cD47uGrbN58Vhe_JIDx1-70" value="" style="endArrow=none;html=1;rounded=0;entryX=0;entryY=0.5;entryDx=0;entryDy=0;" edge="1" parent="1">
          <mxGeometry width="50" height="50" relative="1" as="geometry">
            <mxPoint x="390" y="270" as="sourcePoint" />
            <mxPoint x="420" y="270" as="targetPoint" />
          </mxGeometry>
        </mxCell>
        <mxCell id="cD47uGrbN58Vhe_JIDx1-71" value="" style="endArrow=none;html=1;rounded=0;entryX=0;entryY=0.5;entryDx=0;entryDy=0;" edge="1" parent="1">
          <mxGeometry width="50" height="50" relative="1" as="geometry">
            <mxPoint x="390" y="369.58000000000004" as="sourcePoint" />
            <mxPoint x="420" y="369.58000000000004" as="targetPoint" />
          </mxGeometry>
        </mxCell>
        <mxCell id="cD47uGrbN58Vhe_JIDx1-72" value="" style="endArrow=none;html=1;rounded=0;entryX=0;entryY=0.5;entryDx=0;entryDy=0;" edge="1" parent="1">
          <mxGeometry width="50" height="50" relative="1" as="geometry">
            <mxPoint x="390" y="419.58000000000004" as="sourcePoint" />
            <mxPoint x="420" y="419.58000000000004" as="targetPoint" />
          </mxGeometry>
        </mxCell>
        <mxCell id="cD47uGrbN58Vhe_JIDx1-73" value="" style="endArrow=none;html=1;rounded=0;entryX=0;entryY=0.5;entryDx=0;entryDy=0;" edge="1" parent="1">
          <mxGeometry width="50" height="50" relative="1" as="geometry">
            <mxPoint x="390" y="319.58000000000004" as="sourcePoint" />
            <mxPoint x="420" y="319.58000000000004" as="targetPoint" />
          </mxGeometry>
        </mxCell>
        <mxCell id="cD47uGrbN58Vhe_JIDx1-86" value="" style="endArrow=none;html=1;rounded=0;exitX=1;exitY=0.5;exitDx=0;exitDy=0;" edge="1" parent="1">
          <mxGeometry width="50" height="50" relative="1" as="geometry">
            <mxPoint x="360" y="110" as="sourcePoint" />
            <mxPoint x="390" y="110" as="targetPoint" />
          </mxGeometry>
        </mxCell>
        <mxCell id="cD47uGrbN58Vhe_JIDx1-87" value="" style="endArrow=none;html=1;rounded=0;" edge="1" parent="1">
          <mxGeometry width="50" height="50" relative="1" as="geometry">
            <mxPoint x="390" y="190" as="sourcePoint" />
            <mxPoint x="390" y="40" as="targetPoint" />
          </mxGeometry>
        </mxCell>
        <mxCell id="cD47uGrbN58Vhe_JIDx1-88" value="" style="endArrow=none;html=1;rounded=0;entryX=0;entryY=0.5;entryDx=0;entryDy=0;" edge="1" parent="1">
          <mxGeometry width="50" height="50" relative="1" as="geometry">
            <mxPoint x="390" y="40" as="sourcePoint" />
            <mxPoint x="420" y="40" as="targetPoint" />
          </mxGeometry>
        </mxCell>
        <mxCell id="cD47uGrbN58Vhe_JIDx1-89" value="" style="endArrow=none;html=1;rounded=0;entryX=0;entryY=0.5;entryDx=0;entryDy=0;" edge="1" parent="1">
          <mxGeometry width="50" height="50" relative="1" as="geometry">
            <mxPoint x="390" y="139.58000000000004" as="sourcePoint" />
            <mxPoint x="420" y="139.58000000000004" as="targetPoint" />
          </mxGeometry>
        </mxCell>
        <mxCell id="cD47uGrbN58Vhe_JIDx1-90" value="" style="endArrow=none;html=1;rounded=0;entryX=0;entryY=0.5;entryDx=0;entryDy=0;" edge="1" parent="1">
          <mxGeometry width="50" height="50" relative="1" as="geometry">
            <mxPoint x="390" y="189.58000000000004" as="sourcePoint" />
            <mxPoint x="420" y="189.58000000000004" as="targetPoint" />
          </mxGeometry>
        </mxCell>
        <mxCell id="cD47uGrbN58Vhe_JIDx1-91" value="" style="endArrow=none;html=1;rounded=0;entryX=0;entryY=0.5;entryDx=0;entryDy=0;" edge="1" parent="1">
          <mxGeometry width="50" height="50" relative="1" as="geometry">
            <mxPoint x="390" y="89.58000000000004" as="sourcePoint" />
            <mxPoint x="420" y="89.58000000000004" as="targetPoint" />
          </mxGeometry>
        </mxCell>
        <mxCell id="cD47uGrbN58Vhe_JIDx1-92" value="" style="endArrow=none;html=1;rounded=0;exitX=1;exitY=0.5;exitDx=0;exitDy=0;" edge="1" parent="1">
          <mxGeometry width="50" height="50" relative="1" as="geometry">
            <mxPoint x="360" y="810" as="sourcePoint" />
            <mxPoint x="390" y="810" as="targetPoint" />
          </mxGeometry>
        </mxCell>
        <mxCell id="cD47uGrbN58Vhe_JIDx1-93" value="" style="endArrow=none;html=1;rounded=0;" edge="1" parent="1">
          <mxGeometry width="50" height="50" relative="1" as="geometry">
            <mxPoint x="390" y="890" as="sourcePoint" />
            <mxPoint x="390" y="740" as="targetPoint" />
          </mxGeometry>
        </mxCell>
        <mxCell id="cD47uGrbN58Vhe_JIDx1-94" value="" style="endArrow=none;html=1;rounded=0;entryX=0;entryY=0.5;entryDx=0;entryDy=0;" edge="1" parent="1">
          <mxGeometry width="50" height="50" relative="1" as="geometry">
            <mxPoint x="390" y="740" as="sourcePoint" />
            <mxPoint x="420" y="740" as="targetPoint" />
          </mxGeometry>
        </mxCell>
        <mxCell id="cD47uGrbN58Vhe_JIDx1-95" value="" style="endArrow=none;html=1;rounded=0;entryX=0;entryY=0.5;entryDx=0;entryDy=0;" edge="1" parent="1">
          <mxGeometry width="50" height="50" relative="1" as="geometry">
            <mxPoint x="390" y="839.58" as="sourcePoint" />
            <mxPoint x="420" y="839.58" as="targetPoint" />
          </mxGeometry>
        </mxCell>
        <mxCell id="cD47uGrbN58Vhe_JIDx1-96" value="" style="endArrow=none;html=1;rounded=0;entryX=0;entryY=0.5;entryDx=0;entryDy=0;" edge="1" parent="1">
          <mxGeometry width="50" height="50" relative="1" as="geometry">
            <mxPoint x="390" y="889.58" as="sourcePoint" />
            <mxPoint x="420" y="889.58" as="targetPoint" />
          </mxGeometry>
        </mxCell>
        <mxCell id="cD47uGrbN58Vhe_JIDx1-97" value="" style="endArrow=none;html=1;rounded=0;entryX=0;entryY=0.5;entryDx=0;entryDy=0;" edge="1" parent="1">
          <mxGeometry width="50" height="50" relative="1" as="geometry">
            <mxPoint x="390" y="789.58" as="sourcePoint" />
            <mxPoint x="420" y="789.58" as="targetPoint" />
          </mxGeometry>
        </mxCell>
        <mxCell id="cD47uGrbN58Vhe_JIDx1-98" value="" style="endArrow=none;html=1;rounded=0;exitX=1;exitY=0.5;exitDx=0;exitDy=0;" edge="1" parent="1">
          <mxGeometry width="50" height="50" relative="1" as="geometry">
            <mxPoint x="360" y="1054.79" as="sourcePoint" />
            <mxPoint x="390" y="1054.79" as="targetPoint" />
          </mxGeometry>
        </mxCell>
        <mxCell id="cD47uGrbN58Vhe_JIDx1-99" value="" style="endArrow=none;html=1;rounded=0;" edge="1" parent="1">
          <mxGeometry width="50" height="50" relative="1" as="geometry">
            <mxPoint x="390" y="1134.79" as="sourcePoint" />
            <mxPoint x="390" y="984.79" as="targetPoint" />
          </mxGeometry>
        </mxCell>
        <mxCell id="cD47uGrbN58Vhe_JIDx1-100" value="" style="endArrow=none;html=1;rounded=0;entryX=0;entryY=0.5;entryDx=0;entryDy=0;" edge="1" parent="1">
          <mxGeometry width="50" height="50" relative="1" as="geometry">
            <mxPoint x="390" y="984.79" as="sourcePoint" />
            <mxPoint x="420" y="984.79" as="targetPoint" />
          </mxGeometry>
        </mxCell>
        <mxCell id="cD47uGrbN58Vhe_JIDx1-101" value="" style="endArrow=none;html=1;rounded=0;entryX=0;entryY=0.5;entryDx=0;entryDy=0;" edge="1" parent="1">
          <mxGeometry width="50" height="50" relative="1" as="geometry">
            <mxPoint x="390" y="1084.3700000000001" as="sourcePoint" />
            <mxPoint x="420" y="1084.3700000000001" as="targetPoint" />
          </mxGeometry>
        </mxCell>
        <mxCell id="cD47uGrbN58Vhe_JIDx1-102" value="" style="endArrow=none;html=1;rounded=0;entryX=0;entryY=0.5;entryDx=0;entryDy=0;" edge="1" parent="1">
          <mxGeometry width="50" height="50" relative="1" as="geometry">
            <mxPoint x="390" y="1134.3700000000001" as="sourcePoint" />
            <mxPoint x="420" y="1134.3700000000001" as="targetPoint" />
          </mxGeometry>
        </mxCell>
        <mxCell id="cD47uGrbN58Vhe_JIDx1-103" value="" style="endArrow=none;html=1;rounded=0;entryX=0;entryY=0.5;entryDx=0;entryDy=0;" edge="1" parent="1">
          <mxGeometry width="50" height="50" relative="1" as="geometry">
            <mxPoint x="390" y="1034.3700000000001" as="sourcePoint" />
            <mxPoint x="420" y="1034.3700000000001" as="targetPoint" />
          </mxGeometry>
        </mxCell>
        <mxCell id="cD47uGrbN58Vhe_JIDx1-104" value="" style="endArrow=none;html=1;rounded=0;entryX=0;entryY=0.5;entryDx=0;entryDy=0;" edge="1" parent="1" target="cD47uGrbN58Vhe_JIDx1-32">
          <mxGeometry width="50" height="50" relative="1" as="geometry">
            <mxPoint x="550" y="40" as="sourcePoint" />
            <mxPoint x="600" y="-10" as="targetPoint" />
          </mxGeometry>
        </mxCell>
        <mxCell id="cD47uGrbN58Vhe_JIDx1-105" value="" style="endArrow=none;html=1;rounded=0;entryX=0;entryY=0.5;entryDx=0;entryDy=0;" edge="1" parent="1">
          <mxGeometry width="50" height="50" relative="1" as="geometry">
            <mxPoint x="550" y="139.57999999999998" as="sourcePoint" />
            <mxPoint x="590" y="139.57999999999998" as="targetPoint" />
          </mxGeometry>
        </mxCell>
        <mxCell id="cD47uGrbN58Vhe_JIDx1-106" value="" style="endArrow=none;html=1;rounded=0;entryX=0;entryY=0.5;entryDx=0;entryDy=0;" edge="1" parent="1">
          <mxGeometry width="50" height="50" relative="1" as="geometry">
            <mxPoint x="550" y="89.58" as="sourcePoint" />
            <mxPoint x="590" y="89.58" as="targetPoint" />
          </mxGeometry>
        </mxCell>
        <mxCell id="cD47uGrbN58Vhe_JIDx1-107" value="" style="endArrow=none;html=1;rounded=0;entryX=0;entryY=0.5;entryDx=0;entryDy=0;" edge="1" parent="1">
          <mxGeometry width="50" height="50" relative="1" as="geometry">
            <mxPoint x="550" y="189.57999999999998" as="sourcePoint" />
            <mxPoint x="590" y="189.57999999999998" as="targetPoint" />
          </mxGeometry>
        </mxCell>
        <mxCell id="cD47uGrbN58Vhe_JIDx1-108" value="" style="endArrow=none;html=1;rounded=0;entryX=0;entryY=0.5;entryDx=0;entryDy=0;" edge="1" parent="1">
          <mxGeometry width="50" height="50" relative="1" as="geometry">
            <mxPoint x="550" y="269.99999999999994" as="sourcePoint" />
            <mxPoint x="590" y="269.99999999999994" as="targetPoint" />
          </mxGeometry>
        </mxCell>
        <mxCell id="cD47uGrbN58Vhe_JIDx1-109" value="" style="endArrow=none;html=1;rounded=0;entryX=0;entryY=0.5;entryDx=0;entryDy=0;" edge="1" parent="1">
          <mxGeometry width="50" height="50" relative="1" as="geometry">
            <mxPoint x="550" y="369.58" as="sourcePoint" />
            <mxPoint x="590" y="369.58" as="targetPoint" />
          </mxGeometry>
        </mxCell>
        <mxCell id="cD47uGrbN58Vhe_JIDx1-110" value="" style="endArrow=none;html=1;rounded=0;entryX=0;entryY=0.5;entryDx=0;entryDy=0;" edge="1" parent="1">
          <mxGeometry width="50" height="50" relative="1" as="geometry">
            <mxPoint x="550" y="319.58" as="sourcePoint" />
            <mxPoint x="590" y="319.58" as="targetPoint" />
          </mxGeometry>
        </mxCell>
        <mxCell id="cD47uGrbN58Vhe_JIDx1-111" value="" style="endArrow=none;html=1;rounded=0;entryX=0;entryY=0.5;entryDx=0;entryDy=0;" edge="1" parent="1">
          <mxGeometry width="50" height="50" relative="1" as="geometry">
            <mxPoint x="550" y="419.58" as="sourcePoint" />
            <mxPoint x="590" y="419.58" as="targetPoint" />
          </mxGeometry>
        </mxCell>
        <mxCell id="cD47uGrbN58Vhe_JIDx1-112" value="" style="endArrow=none;html=1;rounded=0;entryX=0;entryY=0.5;entryDx=0;entryDy=0;" edge="1" parent="1">
          <mxGeometry width="50" height="50" relative="1" as="geometry">
            <mxPoint x="550" y="980" as="sourcePoint" />
            <mxPoint x="590" y="980" as="targetPoint" />
          </mxGeometry>
        </mxCell>
        <mxCell id="cD47uGrbN58Vhe_JIDx1-113" value="" style="endArrow=none;html=1;rounded=0;entryX=0;entryY=0.5;entryDx=0;entryDy=0;" edge="1" parent="1">
          <mxGeometry width="50" height="50" relative="1" as="geometry">
            <mxPoint x="550" y="1079.58" as="sourcePoint" />
            <mxPoint x="590" y="1079.58" as="targetPoint" />
          </mxGeometry>
        </mxCell>
        <mxCell id="cD47uGrbN58Vhe_JIDx1-114" value="" style="endArrow=none;html=1;rounded=0;entryX=0;entryY=0.5;entryDx=0;entryDy=0;" edge="1" parent="1">
          <mxGeometry width="50" height="50" relative="1" as="geometry">
            <mxPoint x="550" y="1029.58" as="sourcePoint" />
            <mxPoint x="590" y="1029.58" as="targetPoint" />
          </mxGeometry>
        </mxCell>
        <mxCell id="cD47uGrbN58Vhe_JIDx1-115" value="" style="endArrow=none;html=1;rounded=0;entryX=0;entryY=0.5;entryDx=0;entryDy=0;" edge="1" parent="1">
          <mxGeometry width="50" height="50" relative="1" as="geometry">
            <mxPoint x="550" y="1129.58" as="sourcePoint" />
            <mxPoint x="590" y="1129.58" as="targetPoint" />
          </mxGeometry>
        </mxCell>
        <mxCell id="cD47uGrbN58Vhe_JIDx1-116" value="" style="endArrow=none;html=1;rounded=0;entryX=0;entryY=0.5;entryDx=0;entryDy=0;" edge="1" parent="1">
          <mxGeometry width="50" height="50" relative="1" as="geometry">
            <mxPoint x="550" y="740" as="sourcePoint" />
            <mxPoint x="590" y="740" as="targetPoint" />
          </mxGeometry>
        </mxCell>
        <mxCell id="cD47uGrbN58Vhe_JIDx1-117" value="" style="endArrow=none;html=1;rounded=0;entryX=0;entryY=0.5;entryDx=0;entryDy=0;" edge="1" parent="1">
          <mxGeometry width="50" height="50" relative="1" as="geometry">
            <mxPoint x="550" y="839.5799999999999" as="sourcePoint" />
            <mxPoint x="590" y="839.5799999999999" as="targetPoint" />
          </mxGeometry>
        </mxCell>
        <mxCell id="cD47uGrbN58Vhe_JIDx1-118" value="" style="endArrow=none;html=1;rounded=0;entryX=0;entryY=0.5;entryDx=0;entryDy=0;" edge="1" parent="1">
          <mxGeometry width="50" height="50" relative="1" as="geometry">
            <mxPoint x="550" y="789.5799999999999" as="sourcePoint" />
            <mxPoint x="590" y="789.5799999999999" as="targetPoint" />
          </mxGeometry>
        </mxCell>
        <mxCell id="cD47uGrbN58Vhe_JIDx1-119" value="" style="endArrow=none;html=1;rounded=0;entryX=0;entryY=0.5;entryDx=0;entryDy=0;" edge="1" parent="1">
          <mxGeometry width="50" height="50" relative="1" as="geometry">
            <mxPoint x="550" y="889.5799999999999" as="sourcePoint" />
            <mxPoint x="590" y="889.5799999999999" as="targetPoint" />
          </mxGeometry>
        </mxCell>
        <mxCell id="cD47uGrbN58Vhe_JIDx1-120" value="" style="endArrow=none;html=1;rounded=0;entryX=0;entryY=0.5;entryDx=0;entryDy=0;" edge="1" parent="1">
          <mxGeometry width="50" height="50" relative="1" as="geometry">
            <mxPoint x="550" y="499.99999999999994" as="sourcePoint" />
            <mxPoint x="590" y="499.99999999999994" as="targetPoint" />
          </mxGeometry>
        </mxCell>
        <mxCell id="cD47uGrbN58Vhe_JIDx1-121" value="" style="endArrow=none;html=1;rounded=0;entryX=0;entryY=0.5;entryDx=0;entryDy=0;" edge="1" parent="1">
          <mxGeometry width="50" height="50" relative="1" as="geometry">
            <mxPoint x="550" y="599.5799999999999" as="sourcePoint" />
            <mxPoint x="590" y="599.5799999999999" as="targetPoint" />
          </mxGeometry>
        </mxCell>
        <mxCell id="cD47uGrbN58Vhe_JIDx1-122" value="" style="endArrow=none;html=1;rounded=0;entryX=0;entryY=0.5;entryDx=0;entryDy=0;" edge="1" parent="1">
          <mxGeometry width="50" height="50" relative="1" as="geometry">
            <mxPoint x="550" y="549.5799999999999" as="sourcePoint" />
            <mxPoint x="590" y="549.5799999999999" as="targetPoint" />
          </mxGeometry>
        </mxCell>
        <mxCell id="cD47uGrbN58Vhe_JIDx1-123" value="" style="endArrow=none;html=1;rounded=0;entryX=0;entryY=0.5;entryDx=0;entryDy=0;" edge="1" parent="1">
          <mxGeometry width="50" height="50" relative="1" as="geometry">
            <mxPoint x="550" y="649.5799999999999" as="sourcePoint" />
            <mxPoint x="590" y="649.5799999999999" as="targetPoint" />
          </mxGeometry>
        </mxCell>
        <mxCell id="cD47uGrbN58Vhe_JIDx1-124" value="" style="endArrow=none;html=1;rounded=0;entryX=0;entryY=0.5;entryDx=0;entryDy=0;" edge="1" parent="1" target="cD47uGrbN58Vhe_JIDx1-54">
          <mxGeometry width="50" height="50" relative="1" as="geometry">
            <mxPoint x="150" y="569.17" as="sourcePoint" />
            <mxPoint x="200" y="569.17" as="targetPoint" />
          </mxGeometry>
        </mxCell>
        <mxCell id="cD47uGrbN58Vhe_JIDx1-125" value="" style="endArrow=none;html=1;rounded=0;" edge="1" parent="1">
          <mxGeometry width="50" height="50" relative="1" as="geometry">
            <mxPoint x="170" y="1060" as="sourcePoint" />
            <mxPoint x="170" y="110" as="targetPoint" />
          </mxGeometry>
        </mxCell>
        <mxCell id="cD47uGrbN58Vhe_JIDx1-126" value="" style="endArrow=none;html=1;rounded=0;exitX=0;exitY=0.5;exitDx=0;exitDy=0;" edge="1" parent="1" source="cD47uGrbN58Vhe_JIDx1-56">
          <mxGeometry width="50" height="50" relative="1" as="geometry">
            <mxPoint x="160" y="1110" as="sourcePoint" />
            <mxPoint x="170" y="1060" as="targetPoint" />
          </mxGeometry>
        </mxCell>
        <mxCell id="cD47uGrbN58Vhe_JIDx1-127" value="" style="endArrow=none;html=1;rounded=0;exitX=0;exitY=0.5;exitDx=0;exitDy=0;" edge="1" parent="1">
          <mxGeometry width="50" height="50" relative="1" as="geometry">
            <mxPoint x="240" y="110" as="sourcePoint" />
            <mxPoint x="170" y="110" as="targetPoint" />
          </mxGeometry>
        </mxCell>
        <mxCell id="cD47uGrbN58Vhe_JIDx1-128" value="" style="endArrow=none;html=1;rounded=0;exitX=0;exitY=0.5;exitDx=0;exitDy=0;" edge="1" parent="1">
          <mxGeometry width="50" height="50" relative="1" as="geometry">
            <mxPoint x="240" y="339.16999999999996" as="sourcePoint" />
            <mxPoint x="170" y="339.16999999999996" as="targetPoint" />
          </mxGeometry>
        </mxCell>
        <mxCell id="cD47uGrbN58Vhe_JIDx1-129" value="" style="endArrow=none;html=1;rounded=0;exitX=0;exitY=0.5;exitDx=0;exitDy=0;" edge="1" parent="1">
          <mxGeometry width="50" height="50" relative="1" as="geometry">
            <mxPoint x="240" y="809.1700000000001" as="sourcePoint" />
            <mxPoint x="170" y="809.1700000000001" as="targetPoint" />
          </mxGeometry>
        </mxCell>
      </root>
    </mxGraphModel>
  </diagram>
</mxfile>
